# xmcd
# 
# Track frame offsets:
#     150
#     10940
#     22805
#     31759
#     42605
#     51770
#     62107
#     73732
#     83317
#     93272
#     102987
#     112107
#     120964
#     131692
#     141377
#     153991
#     164012
#     173500
#     185805
#     195241
# 
# Disc length: 2813
# 
# Revision: 3
# Processed by: cddbd v1.5.2PL0 Copyright (c) Steve Scherf et al.
# Submitted via: fre:ac v1.0.31
# 
DISCID=070afb14
DTITLE=Hugo Montenegro - The Best Of
DYEAR=2000
DGENRE=Instrumental
TTITLE0=John Montenegro - Come Spy With Me
TTITLE1=Philip Sloan - Secret Agent Man
TTITLE2=Earl Eagan - Theme From 'I Spy'
TTITLE3=John Barry - Thunderball
TTITLE4=Jerry Goldsmith - Theme From 'The Man From U.N.C.L.E.'
TTITLE5=Monty Norman - The James Bond Theme
TTITLE6=Mack David - The Silencers
TTITLE7=Irving Szatimary - 'Get Smart' Theme
TTITLE8=Bronislau Kaper - Theme From 'The F.B.I.'
TTITLE9=Lalo Schifrin - The Man From THRUSH
TTITLE10=Sol Kaplan - Theme From 'The Spy Who Came In From The Cold'
TTITLE11=Leslie Bricusse - Goldfinger
TTITLE12=Jerry Goldsmith - Our Man Flint
TTITLE13=Lalo Schifrin - Illya
TTITLE14=Ennio Morricone - The Good, The Bad And The Ugly
TTITLE15=Dominic Frontiere - Hang 'Em High
TTITLE16=Ennio Morricone - For A Few Dollars More
TTITLE17=Ennio Morricone - Theme From 'A Fistful Of Dollars'
TTITLE18=Henry Mancini - Theme For Three
TTITLE19=Nino Rota - The Godfather Waltz
EXTD=YEAR: 2000
EXTT0=
EXTT1=
EXTT2=
EXTT3=
EXTT4=
EXTT5=
EXTT6=
EXTT7=
EXTT8=
EXTT9=
EXTT10=
EXTT11=
EXTT12=
EXTT13=
EXTT14=
EXTT15=
EXTT16=
EXTT17=
EXTT18=
EXTT19=
PLAYORDER=
